<svg width="120" height="120" viewBox="0 0 120 120" fill="none" xmlns="http://www.w3.org/2000/svg">
<g clip-path="url(#clip0_2012_331)">
<path d="M117.53 99.8863H3.90143V104.827H117.53V99.8863Z" fill="#043A69"/>
<path d="M115.809 22.0592C107.557 17.2495 98.1801 19.8044 91.7683 22.7943L72.6545 31.7073L39.7813 15.1733L20.2044 16.0144L47.3499 43.5343L30.05 51.7523L12.051 44.9022L0 50.5214L10.8908 64.0454C9.74018 65.4181 8.69751 67.3508 9.64409 69.3808C10.8804 72.0318 14.5346 73.3679 20.5285 73.3676C21.7576 73.3676 23.0853 73.3116 24.5104 73.1989C31.09 72.6792 38.2234 70.9997 42.6838 68.9198L111.008 37.0597C116.909 34.3076 119.849 31.418 119.995 28.225C120.07 26.569 119.405 24.1544 115.809 22.0592ZM108.92 32.582L40.5957 64.4424C36.7956 66.2145 30.5567 67.6993 24.7013 68.225C18.7166 68.7622 15.5167 68.0876 14.4501 67.5148C14.6697 67.2142 15.0797 66.7419 15.8363 66.0759L17.6109 64.514L7.80232 52.334L12.2452 50.262L30.2634 57.12L55.7481 45.0139L31.5403 20.4721L38.709 20.1641L72.5725 37.1958L93.8556 27.2716C101.629 23.6471 108.177 23.3299 113.321 26.3272L113.322 26.3275C114.618 27.0826 115.071 27.7414 115.059 27.9998C115.058 28.0175 114.91 29.7892 108.92 32.582Z" fill="#043A69"/>
</g>
<defs>
<clipPath id="clip0_2012_331">
<rect width="120" height="120" fill="white"/>
</clipPath>
</defs>
</svg>
