<svg width="123" height="122" viewBox="0 0 123 122" fill="none" xmlns="http://www.w3.org/2000/svg">
<g clip-path="url(#clip0_2012_249)">
<path d="M40.8313 95.613V84.9429C40.8313 80.2537 40.6519 75.5843 40.2732 70.9149L34.9515 4.13284C34.8518 2.92078 33.8353 1.98691 32.6195 1.98691H29.3109C28.0951 1.98691 27.0786 2.92078 26.9789 4.13284L21.6573 70.9149C21.2786 75.5843 21.0992 80.2736 21.0992 84.9429V95.613" stroke="#223A69" stroke-width="4" stroke-linecap="round" stroke-linejoin="round"/>
<path d="M101.144 95.613V84.9429C101.144 80.2537 100.964 75.5843 100.585 70.9149L95.2638 4.13284C95.1642 2.92078 94.1477 1.98691 92.9318 1.98691H89.6232C88.4074 1.98691 87.3909 2.92078 87.2913 4.13284L81.9696 70.9149C81.5909 75.5843 81.4115 80.2736 81.4115 84.9429V95.613" stroke="#223A69" stroke-width="4" stroke-linecap="round" stroke-linejoin="round"/>
<path d="M82.4679 64.8348H39.7948" stroke="#223A69" stroke-width="4" stroke-linecap="round" stroke-linejoin="round"/>
<path d="M83.3648 53.5489H38.8979" stroke="#223A69" stroke-width="4" stroke-linecap="round" stroke-linejoin="round"/>
<path d="M99.2103 53.5489H121.015V64.8349H100.107" stroke="#223A69" stroke-width="4" stroke-linecap="round" stroke-linejoin="round"/>
<path d="M22.1555 64.8349H3.00146V53.5489H23.0524" stroke="#223A69" stroke-width="4" stroke-linecap="round" stroke-linejoin="round"/>
<path d="M34.9515 4.13293C34.9515 4.13293 58.5104 43.0776 87.2913 4.13293" stroke="#223A69" stroke-width="4" stroke-linecap="round" stroke-linejoin="round"/>
<path d="M7.66547 53.5488L26.1618 14.5645" stroke="#223A69" stroke-width="4" stroke-linecap="round" stroke-linejoin="round"/>
<path d="M114.577 53.5488L96.101 14.5645" stroke="#223A69" stroke-width="4" stroke-linecap="round" stroke-linejoin="round"/>
<path d="M12.6483 95.6131H49.3021" stroke="#223A69" stroke-width="4" stroke-linecap="round" stroke-linejoin="round"/>
<path d="M72.9407 95.6131H109.614" stroke="#223A69" stroke-width="4" stroke-linecap="round" stroke-linejoin="round"/>
<path d="M30.3673 60.0264H31.5831" stroke="#223A69" stroke-width="4" stroke-linecap="round" stroke-linejoin="round"/>
<path d="M90.6796 60.0264H91.8954" stroke="#223A69" stroke-width="4" stroke-linecap="round" stroke-linejoin="round"/>
</g>
<defs>
<clipPath id="clip0_2012_249">
<rect width="122" height="122" fill="white" transform="translate(0.5)"/>
</clipPath>
</defs>
</svg>
