<svg width="121" height="120" viewBox="0 0 121 120" fill="none" xmlns="http://www.w3.org/2000/svg">
<g clip-path="url(#clip0_2013_369)">
<path d="M104.99 59.9774C104.99 59.8589 104.967 59.763 104.939 59.6389C104.939 59.5881 104.917 59.5655 104.917 59.5204C104.894 59.4019 104.843 59.2777 104.77 59.1818C104.77 59.1818 104.762 59.1667 104.747 59.1367L104.725 59.1141L90.5296 34.0487C90.5296 34.0487 90.5071 34.0261 90.5071 33.9979C90.4337 33.8794 90.3603 33.7553 90.2644 33.6594L90.2418 33.6368C90.1458 33.5409 90.0273 33.4449 89.9031 33.3716C89.8806 33.349 89.8298 33.3208 89.8072 33.3208C89.7112 33.27 89.6153 33.2249 89.5193 33.2023C89.4685 33.1797 89.446 33.1797 89.4008 33.1797C89.2541 33.1572 89.113 33.1289 88.9662 33.1289H32.0564C31.9096 33.1289 31.7685 33.1515 31.6218 33.1797C31.571 33.1797 31.5484 33.2023 31.5032 33.2023C31.4073 33.2249 31.3113 33.2757 31.2154 33.3208C31.1928 33.3434 31.142 33.3434 31.1194 33.3716C31.0009 33.4449 30.8767 33.5409 30.7808 33.6368L30.7582 33.6594C30.6623 33.7553 30.5889 33.8738 30.5155 33.9979C30.5155 34.0205 30.4929 34.0205 30.4929 34.0487L16.2754 59.0915L16.2528 59.1141C16.2528 59.1141 16.2528 59.1366 16.2302 59.1649C16.1794 59.2834 16.1343 59.3793 16.0835 59.5034C16.0835 59.5542 16.0609 59.5768 16.0609 59.6219C16.0383 59.7404 16.0101 59.8364 16.0101 59.9605V60.0564C16.0101 60.2031 16.0327 60.3442 16.0609 60.4909C16.0609 60.5135 16.0835 60.5417 16.0835 60.5643C16.106 60.6828 16.1568 60.7787 16.2302 60.8746C16.2302 60.8972 16.2528 60.9254 16.2528 60.948C16.2528 60.948 16.2697 60.9649 16.3036 60.9988C16.3036 60.9988 16.3544 61.0721 16.377 61.0947L59.0523 119.295L59.1031 119.345L59.3176 119.56C59.3176 119.56 59.3684 119.611 59.3909 119.611C59.4869 119.684 59.5828 119.757 59.7014 119.825C59.7239 119.848 59.7522 119.848 59.7747 119.848C59.8707 119.898 59.9666 119.921 60.0626 119.944C60.0852 119.944 60.136 119.966 60.1585 119.966C60.2771 119.989 60.4012 120.017 60.5423 120.017C60.6609 120.017 60.8076 119.994 60.9261 119.966C60.9487 119.966 60.9995 119.944 61.0221 119.944C61.118 119.921 61.214 119.87 61.3099 119.848C61.3325 119.848 61.3607 119.825 61.3833 119.825C61.5018 119.774 61.5978 119.707 61.6937 119.611C61.7163 119.588 61.7445 119.56 61.7671 119.56C61.8405 119.487 61.9139 119.413 61.9816 119.345C61.9816 119.345 61.9985 119.328 62.0324 119.295L104.708 61.0947C104.708 61.0947 104.758 61.0213 104.781 60.9988C104.781 60.9988 104.798 60.9818 104.832 60.948C104.832 60.948 104.854 60.8972 104.854 60.8746C104.905 60.7787 104.95 60.6602 105.001 60.5643C105.001 60.5417 105.024 60.5135 105.024 60.4909C105.046 60.3442 105.069 60.2031 105.069 60.0564C104.996 60.0339 104.996 60.0056 104.996 59.9831L104.99 59.9774ZM72.4007 61.8452L60.4915 110.56L48.5824 61.8452H72.4063H72.4007ZM49.3952 58.1999L60.4915 38.5855L71.5879 58.1999H49.4008H49.3952ZM74.7317 56.3265L63.6353 36.7347H85.8506L74.7317 56.3265ZM46.274 56.3265L35.1776 36.7347H57.3929L46.274 56.3265ZM44.8573 61.8452L56.5745 109.792L21.4172 61.8452H44.8573ZM76.1484 61.8452H99.5885L64.4537 109.792L76.1484 61.8452ZM77.8529 58.1999L88.9493 38.5855L100.046 58.1999H77.8585H77.8529ZM32.0564 38.6081L43.1527 58.2225H20.9656L32.062 38.6081H32.0564ZM13.6339 60.0226C13.6339 61.0326 12.8155 61.8452 11.8109 61.8452H2.32306C1.31276 61.8452 0.5 61.027 0.5 60.0226C0.5 59.0182 1.3184 58.1999 2.32306 58.1999H11.8334C12.8155 58.1999 13.6339 59.0182 13.6339 60.0226ZM120.5 60.0226C120.5 61.0326 119.682 61.8452 118.677 61.8452H109.167C108.156 61.8452 107.344 61.027 107.344 60.0226C107.344 59.0182 108.162 58.1999 109.167 58.1999H118.677C119.687 58.1999 120.5 59.0182 120.5 60.0226ZM27.3717 93.1571C28.0942 93.8794 28.0942 95.0306 27.3717 95.7246L20.6496 102.445C20.2883 102.806 19.8312 102.976 19.3514 102.976C18.8717 102.976 18.4145 102.806 18.0533 102.445C17.3308 101.723 17.3308 100.572 18.0533 99.8777L24.7754 93.1571C25.4979 92.4349 26.6493 92.4349 27.3717 93.1571ZM93.6283 26.888C92.9058 26.1657 92.9058 25.0146 93.6283 24.3205L100.35 17.5999C101.073 16.8776 102.224 16.8776 102.919 17.5999C103.641 18.3222 103.641 19.4733 102.919 20.1674L96.1964 26.888C95.8351 27.2491 95.3779 27.4184 94.8982 27.4184C94.4636 27.4184 93.9838 27.2491 93.6226 26.888H93.6283ZM102.924 99.8777C103.647 100.6 103.647 101.751 102.924 102.445C102.563 102.806 102.106 102.976 101.626 102.976C101.146 102.976 100.689 102.806 100.328 102.445L93.6057 95.7246C92.8832 95.0023 92.8832 93.8512 93.6057 93.1571C94.3281 92.4349 95.4795 92.4349 96.1738 93.1571L102.924 99.8777ZM18.0815 20.1674C17.359 19.4451 17.359 18.294 18.0815 17.5999C18.8039 16.8776 19.9553 16.8776 20.6496 17.5999L27.3717 24.3205C28.0942 25.0428 28.0942 26.1939 27.3717 26.888C27.0105 27.2491 26.5533 27.4184 26.0736 27.4184C25.5938 27.4184 25.1367 27.2491 24.7754 26.888L18.0758 20.1674H18.0815ZM58.6854 11.3082V1.82263C58.6854 0.812565 59.5038 0 60.5085 0C61.5131 0 62.3315 0.818207 62.3315 1.82263V11.3308C62.3315 12.3408 61.5131 13.1534 60.5085 13.1534C59.4982 13.1308 58.6854 12.3126 58.6854 11.3025V11.3082Z" fill="#223A69"/>
</g>
<defs>
<clipPath id="clip0_2013_369">
<rect width="120" height="120" fill="white" transform="translate(0.5)"/>
</clipPath>
</defs>
</svg>
