<svg width="110" height="110" viewBox="0 0 110 110" fill="none" xmlns="http://www.w3.org/2000/svg">
<path d="M55 103.089C45.4889 103.089 36.1914 100.269 28.2832 94.9845C20.3751 89.7004 14.2114 82.1899 10.5716 73.4028C6.93191 64.6157 5.97959 54.9467 7.83511 45.6183C9.69063 36.29 14.2707 27.7214 20.996 20.996C27.7214 14.2707 36.29 9.69063 45.6183 7.83511C54.9467 5.97959 64.6157 6.93191 73.4028 10.5716C82.1899 14.2114 89.7004 20.3751 94.9845 28.2832C100.269 36.1914 103.089 45.4889 103.089 55C103.075 67.7496 98.0034 79.9728 88.9881 88.9881C79.9728 98.0034 67.7496 103.075 55 103.089ZM55 10.3486C46.1688 10.3486 37.5359 12.9674 30.193 17.8737C22.8501 22.7801 17.127 29.7537 13.7475 37.9126C10.3679 46.0716 9.48367 55.0495 11.2066 63.7111C12.9294 72.3726 17.1821 80.3287 23.4267 86.5733C29.6713 92.8179 37.6274 97.0706 46.2889 98.7934C54.9505 100.516 63.9284 99.6321 72.0874 96.2525C80.2463 92.873 87.2199 87.1499 92.1263 79.807C97.0326 72.4641 99.6514 63.8312 99.6514 55C99.6379 43.1618 94.9293 31.8124 86.5584 23.4416C78.1876 15.0707 66.8382 10.3621 55 10.3486Z" fill="#043A69"/>
<path d="M54.7717 61.5712C54.6276 61.5718 54.484 61.5537 54.3446 61.5175C53.0091 61.2228 51.7893 60.5433 50.8358 59.5629C49.8822 58.5826 49.2369 57.3443 48.9794 56.0012C48.8374 55.003 48.9213 53.9858 49.2249 53.0244C49.5285 52.063 50.044 51.182 50.7334 50.4463C51.3631 49.7602 52.1389 49.2241 53.0034 48.8775C53.8679 48.531 54.7991 48.3828 55.7285 48.444C56.9287 48.5245 58.0749 48.9737 59.0102 49.7302C59.9456 50.4867 60.6246 51.5135 60.9544 52.6704C61.189 53.5841 61.1134 54.5499 60.7394 55.4159C60.3654 56.282 59.7142 56.9992 58.8882 57.4548C58.6961 57.574 58.4824 57.6541 58.2593 57.6905C58.0362 57.7269 57.8081 57.7189 57.588 57.6671C57.368 57.6152 57.1604 57.5204 56.9771 57.3882C56.7937 57.256 56.6383 57.0889 56.5196 56.8965C56.4009 56.7041 56.3214 56.4902 56.2855 56.267C56.2497 56.0438 56.2582 55.8157 56.3106 55.5958C56.363 55.3759 56.4583 55.1685 56.591 54.9855C56.7236 54.8025 56.8911 54.6475 57.0838 54.5293C57.6864 54.1575 57.6914 53.7966 57.6167 53.492C57.4596 53.0433 57.1741 52.6507 56.7958 52.3629C56.4174 52.0751 55.9628 51.9047 55.4884 51.8731C55.0694 51.8458 54.6497 51.9144 54.2611 52.0736C53.8726 52.2329 53.5254 52.4786 53.246 52.7921C52.9094 53.1558 52.6575 53.5895 52.5084 54.0621C52.3592 54.5347 52.3165 55.0344 52.3833 55.5255C52.5454 56.1934 52.8973 56.8002 53.3966 57.2726C53.8959 57.7449 54.5213 58.0627 55.1972 58.1875C55.6027 58.2913 55.9564 58.5395 56.1919 58.8856C56.4273 59.2316 56.5285 59.6517 56.4762 60.067C56.424 60.4823 56.2221 60.8642 55.9082 61.1412C55.5944 61.4182 55.1903 61.571 54.7717 61.5712Z" fill="#043A69"/>
<path d="M55 15.0198C47.0927 15.0198 39.3629 17.3646 32.7882 21.7577C26.2135 26.1507 21.0891 32.3948 18.0631 39.7002C15.0371 47.0057 14.2453 55.0444 15.788 62.7998C17.3306 70.5552 21.1384 77.679 26.7297 83.2703C32.321 88.8617 39.4448 92.6694 47.2002 94.2121C54.9557 95.7547 62.9944 94.963 70.2998 91.9369C77.6052 88.9109 83.8493 83.7866 88.2424 77.2119C92.6355 70.6371 94.9802 62.9074 94.9802 55C94.9682 44.4003 90.7521 34.2382 83.257 26.743C75.7619 19.2479 65.5997 15.0318 55 15.0198ZM55.8132 78.8208C54.9743 83.2213 53.4116 87.4522 51.1885 91.3414C47.0136 90.8958 42.9481 89.7269 39.1741 87.8872C42.5965 85.3297 45.6262 82.2851 48.167 78.8502C50.7942 75.2514 52.8572 71.273 54.2849 67.0522C54.5228 67.0662 54.7586 67.0883 55 67.0883C55.4085 67.0882 55.8167 67.0675 56.2231 67.0263C56.6649 70.9567 56.5268 74.9306 55.8132 78.8208ZM55 63.6508C53.289 63.6508 51.6165 63.1435 50.1939 62.1929C48.7713 61.2423 47.6625 59.8913 47.0077 58.3105C46.3529 56.7298 46.1816 54.9904 46.5154 53.3123C46.8492 51.6342 47.6731 50.0928 48.883 48.883C50.0928 47.6731 51.6342 46.8492 53.3123 46.5154C54.9904 46.1816 56.7298 46.3529 58.3105 47.0077C59.8913 47.6625 61.2423 48.7713 62.1929 50.1939C63.1435 51.6165 63.6508 53.2891 63.6508 55C63.6483 57.2936 62.736 59.4925 61.1142 61.1142C59.4924 62.736 57.2936 63.6483 55 63.6508ZM43.0121 53.5182C34.5795 52.5926 26.6675 48.982 20.4427 43.2187C21.8001 39.242 23.8343 35.5297 26.4555 32.2455C28.1877 36.1539 30.4829 39.7876 33.2681 43.0309C36.1907 46.3908 39.6081 49.2859 43.4028 51.6163C43.2214 52.2387 43.0907 52.8748 43.0121 53.5182ZM30.2267 53.6463C34.3197 55.4059 38.6569 56.5314 43.0891 56.9843C43.1939 57.623 43.3504 58.2522 43.557 58.8656C39.8209 60.173 35.9128 60.924 31.9581 61.0945C27.4893 61.2524 23.0251 60.6721 18.7452 59.3768C18.2047 55.2042 18.4264 50.9681 19.3996 46.8746C22.6587 49.6484 26.3064 51.9298 30.2267 53.6463ZM30.3828 64.5623C30.9526 64.5623 31.5225 64.5511 32.0923 64.5287C36.5437 64.3385 40.94 63.4708 45.1298 61.9554C45.5023 62.4846 45.9164 62.9832 46.3682 63.4466C43.5691 66.2459 40.3737 68.6184 36.8844 70.4881C32.933 72.5686 28.665 73.9819 24.2528 74.6708C21.9815 71.1371 20.3407 67.2359 19.4036 63.1411C22.9886 64.0763 26.6777 64.5539 30.3828 64.5623ZM54.186 31.18C55.0253 26.7794 56.5882 22.5482 58.8111 18.6586C62.9862 19.1042 67.0518 20.2731 70.8261 22.1129C63.7752 27.3475 58.5008 34.6199 55.7151 42.9479C55.4771 42.9338 55.2413 42.9117 54.9999 42.9117C54.5911 42.9118 54.1826 42.9325 53.7759 42.9737C53.3344 39.0436 53.4725 35.07 54.186 31.18ZM63.6317 46.5533C69.6097 40.5378 77.3628 36.603 85.7473 35.3292C88.0216 38.8673 89.6638 42.7736 90.6005 46.8739C82.1063 44.6202 73.1249 45.029 64.8705 48.045C64.4979 47.5156 64.0837 47.0168 63.6317 46.5533ZM66.9879 56.4819C75.4205 57.4074 83.3326 61.0181 89.5573 66.7815C88.1999 70.7582 86.1657 74.4706 83.5444 77.7548C80.0112 69.7153 74.0959 62.9537 66.5974 58.3831C66.7787 57.7609 66.9093 57.1251 66.9879 56.4819ZM79.7733 56.3537C75.6803 54.5943 71.3431 53.4688 66.911 53.0158C66.8061 52.3771 66.6497 51.7481 66.4432 51.1347C74.4448 48.3075 83.1435 48.1282 91.2549 50.6233C91.7954 54.7959 91.5737 59.032 90.6006 63.1254C87.3415 60.3517 83.6937 58.0702 79.7733 56.3537ZM83.5366 32.2349C74.9118 33.8899 67.0029 38.1525 60.8783 44.4466C60.3116 44.1328 59.7204 43.8654 59.1107 43.6469C61.886 35.6357 67.1615 28.728 74.1597 23.9419C77.7362 26.1501 80.9078 28.955 83.5366 32.2349ZM55.0142 18.458C50.916 26.2406 49.31 35.0951 50.4138 43.8213C49.8158 44.0706 49.2389 44.3677 48.6888 44.7099C46.5812 41.3568 44.9783 37.712 43.9314 33.8925C42.7823 29.577 42.354 25.1013 42.6637 20.6462C46.6178 19.2069 50.7921 18.4663 55 18.4573L55.0142 18.458ZM39.1551 22.122C39.0209 26.3925 39.5121 30.6597 40.613 34.788C41.7896 39.0871 43.6146 43.1817 46.0252 46.9307C45.5919 47.41 45.1975 47.9232 44.8458 48.4653C37.6474 43.9724 32.0837 37.2849 28.9753 29.3893C31.9276 26.4021 35.3709 23.9439 39.1551 22.122ZM26.4634 77.7652C30.6595 76.946 34.7132 75.5173 38.4956 73.5244C42.4218 71.4223 46.0049 68.7345 49.1217 65.5535C49.6883 65.8672 50.2794 66.1347 50.8891 66.3532C48.1132 74.3639 42.838 81.2714 35.8405 86.0583C32.2639 83.8501 29.0923 81.0451 26.4634 77.7652ZM54.9864 91.542C59.0834 83.7592 60.6889 74.905 59.5855 66.1791C60.1838 65.9297 60.7611 65.6324 61.3116 65.29C65.8477 72.4579 67.9598 80.8941 67.3363 89.3538C63.3822 90.7931 59.2079 91.5338 55 91.5428L54.9864 91.542ZM70.8449 87.878C71.1482 79.1003 68.7501 70.4409 63.9746 63.0696C64.408 62.5902 64.8025 62.0769 65.1542 61.5348C72.3526 66.0276 77.9164 72.7152 81.0247 80.6109C78.0725 83.5981 74.6292 86.0562 70.8449 87.878Z" fill="#043A69"/>
</svg>
