<svg width="102" height="101" viewBox="0 0 102 101" fill="none" xmlns="http://www.w3.org/2000/svg">
<path d="M65.9504 64.0598C65.741 64.0597 65.5338 64.1009 65.3404 64.181C65.147 64.261 64.9713 64.3784 64.8233 64.5264C64.6753 64.6744 64.5579 64.8501 64.4778 65.0435C64.3977 65.2369 64.3565 65.4442 64.3566 65.6535V67.2473C64.3566 67.6699 64.5245 68.0753 64.8234 68.3742C65.1223 68.6731 65.5277 68.841 65.9504 68.841C66.373 68.841 66.7784 68.6731 67.0773 68.3742C67.3762 68.0753 67.5441 67.6699 67.5441 67.2473V65.6535C67.5442 65.4442 67.503 65.2369 67.4229 65.0435C67.3428 64.8501 67.2254 64.6744 67.0774 64.5264C66.9294 64.3784 66.7537 64.261 66.5603 64.181C66.3669 64.1009 66.1597 64.0597 65.9504 64.0598Z" fill="#043A69"/>
<path d="M65.9504 70.4348C65.741 70.4347 65.5338 70.4759 65.3404 70.556C65.147 70.636 64.9713 70.7534 64.8233 70.9014C64.6753 71.0494 64.5579 71.2251 64.4778 71.4185C64.3977 71.6119 64.3565 71.8192 64.3566 72.0285V73.6223C64.3566 74.0449 64.5245 74.4503 64.8234 74.7492C65.1223 75.0481 65.5277 75.216 65.9504 75.216C66.373 75.216 66.7784 75.0481 67.0773 74.7492C67.3762 74.4503 67.5441 74.0449 67.5441 73.6223V72.0285C67.5442 71.8192 67.503 71.6119 67.4229 71.4185C67.3428 71.2251 67.2254 71.0494 67.0774 70.9014C66.9294 70.7534 66.7537 70.636 66.5603 70.556C66.3669 70.4759 66.1597 70.4347 65.9504 70.4348Z" fill="#043A69"/>
<path d="M65.9504 57.6848C65.741 57.6847 65.5338 57.7259 65.3404 57.806C65.147 57.886 64.9713 58.0034 64.8233 58.1514C64.6753 58.2994 64.5579 58.4751 64.4778 58.6685C64.3977 58.8619 64.3565 59.0692 64.3566 59.2785V60.8723C64.3566 61.2949 64.5245 61.7003 64.8234 61.9992C65.1223 62.2981 65.5277 62.466 65.9504 62.466C66.373 62.466 66.7784 62.2981 67.0773 61.9992C67.3762 61.7003 67.5441 61.2949 67.5441 60.8723V59.2785C67.5442 59.0692 67.503 58.8619 67.4229 58.6685C67.3428 58.4751 67.2254 58.2994 67.0774 58.1514C66.9294 58.0034 66.7537 57.886 66.5603 57.806C66.3669 57.7259 66.1597 57.6847 65.9504 57.6848Z" fill="#043A69"/>
<path d="M65.9504 83.1848C65.741 83.1847 65.5338 83.2259 65.3404 83.306C65.147 83.386 64.9713 83.5034 64.8233 83.6514C64.6753 83.7994 64.5579 83.9751 64.4778 84.1685C64.3977 84.3619 64.3565 84.5692 64.3566 84.7785V86.3723C64.3566 86.7949 64.5245 87.2003 64.8234 87.4992C65.1223 87.7981 65.5277 87.966 65.9504 87.966C66.373 87.966 66.7784 87.7981 67.0773 87.4992C67.3762 87.2003 67.5441 86.7949 67.5441 86.3723V84.7785C67.5442 84.5692 67.503 84.3619 67.4229 84.1685C67.3428 83.9751 67.2254 83.7994 67.0774 83.6514C66.9294 83.5034 66.7537 83.386 66.5603 83.306C66.3669 83.2259 66.1597 83.1847 65.9504 83.1848Z" fill="#043A69"/>
<path d="M65.9504 76.8098C65.741 76.8097 65.5338 76.8509 65.3404 76.931C65.147 77.011 64.9713 77.1284 64.8233 77.2764C64.6753 77.4244 64.5579 77.6001 64.4778 77.7935C64.3977 77.9869 64.3565 78.1942 64.3566 78.4035V79.9973C64.3566 80.4199 64.5245 80.8253 64.8234 81.1242C65.1223 81.4231 65.5277 81.591 65.9504 81.591C66.373 81.591 66.7784 81.4231 67.0773 81.1242C67.3762 80.8253 67.5441 80.4199 67.5441 79.9973V78.4035C67.5442 78.1942 67.503 77.9869 67.4229 77.7935C67.3428 77.6001 67.2254 77.4244 67.0774 77.2764C66.9294 77.1284 66.7537 77.011 66.5603 76.931C66.3669 76.8509 66.1597 76.8097 65.9504 76.8098Z" fill="#043A69"/>
<path d="M95.1203 35.0151C95.1159 33.6978 94.5885 32.4363 93.6542 31.5077L86.5819 24.4354C86.258 24.1107 85.8203 23.9251 85.3617 23.918C84.9031 23.9109 84.4598 24.0828 84.126 24.3973C83.3013 25.1553 82.2155 25.5652 81.0956 25.5413C79.9757 25.5174 78.9084 25.0615 78.1168 24.269C77.3252 23.4765 76.8705 22.4086 76.8479 21.2887C76.8253 20.1688 77.2364 19.0835 77.9954 18.2597C78.3103 17.9285 78.4831 17.4871 78.4767 17.0301C78.4703 16.5731 78.2852 16.1368 77.9611 15.8146L70.8826 8.73608C70.4227 8.27282 69.8761 7.9047 69.2739 7.65274C68.6717 7.40077 68.0257 7.26991 67.373 7.26761H67.3465C66.6986 7.26525 66.0568 7.39149 65.458 7.63902C64.8593 7.88655 64.3157 8.25045 63.8586 8.70962L22.0086 50.5596H10.8259C9.50928 50.5659 8.24893 51.0942 7.32136 52.0286C6.3938 52.9631 5.87479 54.2273 5.87819 55.5439V65.5554C5.87611 66.0137 6.05431 66.4544 6.37433 66.7824C6.69434 67.1104 7.13051 67.2995 7.58868 67.3087C8.70733 67.3557 9.76455 67.8332 10.5395 68.6412C11.3145 69.4493 11.7473 70.5256 11.7475 71.6452C11.7477 72.7649 11.3153 73.8413 10.5406 74.6497C9.76595 75.458 8.7089 75.9358 7.59027 75.9833C7.13173 75.9922 6.69511 76.1813 6.37476 76.5095C6.05441 76.8377 5.87604 77.2787 5.87819 77.7374V87.7489C5.87492 89.0654 6.39402 90.3295 7.32159 91.2638C8.24916 92.1981 9.50945 92.7263 10.826 92.7325H85.0879C86.4044 92.7263 87.6647 92.1981 88.5923 91.2638C89.5198 90.3295 90.0389 89.0654 90.0357 87.7489V77.7374C90.0379 77.279 89.8598 76.8381 89.5397 76.5099C89.2197 76.1817 88.7835 75.9926 88.3252 75.9833C87.2065 75.9363 86.1493 75.4588 85.3743 74.6508C84.5994 73.8427 84.1666 72.7664 84.1664 71.6468C84.1662 70.5271 84.5986 69.4507 85.3732 68.6423C86.1479 67.834 87.2049 67.3562 88.3236 67.3087C88.782 67.2998 89.2185 67.1109 89.5388 66.7829C89.8592 66.4548 90.0376 66.0139 90.0356 65.5554V55.5439C90.039 54.2273 89.52 52.963 88.5924 52.0286C87.6648 51.0942 86.4045 50.5658 85.0878 50.5596H81.6497L93.6791 38.5302C94.1415 38.0699 94.5072 37.5218 94.7547 36.9182C95.0022 36.3145 95.1265 35.6675 95.1203 35.0151ZM86.8481 55.5439V64.2885C85.1809 64.6684 83.6923 65.6033 82.626 66.9399C81.5596 68.2766 80.9789 69.9357 80.9789 71.6456C80.9789 73.3555 81.5596 75.0146 82.626 76.3513C83.6923 77.6879 85.1809 78.6228 86.8481 79.0027V87.7489C86.8524 88.2204 86.6695 88.6743 86.3395 89.0111C86.0094 89.3478 85.5593 89.5398 85.0878 89.545H10.8259C10.3544 89.5399 9.90426 89.3478 9.57423 89.0111C9.2442 88.6743 9.06127 88.2204 9.06561 87.7489V79.0035C10.7327 78.6236 12.2214 77.6887 13.2877 76.3521C14.354 75.0154 14.9348 73.3563 14.9348 71.6464C14.9348 69.9365 14.354 68.2774 13.2877 66.9407C12.2214 65.6041 10.7327 64.6692 9.06561 64.2893V55.5439C9.06127 55.0724 9.24417 54.6183 9.57418 54.2815C9.90419 53.9446 10.3544 53.7524 10.8259 53.7471H64.3566V54.4972C64.3566 54.9199 64.5245 55.3253 64.8234 55.6242C65.1223 55.9231 65.5277 56.091 65.9503 56.091C66.373 56.091 66.7784 55.9231 67.0773 55.6242C67.3762 55.3253 67.5441 54.9199 67.5441 54.4972V53.7471H85.0878C85.5593 53.7524 86.0095 53.9446 86.3395 54.2815C86.6695 54.6183 86.8524 55.0724 86.8481 55.5439ZM91.4254 36.2757L77.1424 50.5596H26.516L51.4536 25.6225L51.9832 26.1521C52.1312 26.3001 52.3069 26.4175 52.5002 26.4976C52.6936 26.5777 52.9008 26.6189 53.1101 26.6189C53.3193 26.6189 53.5266 26.5777 53.7199 26.4976C53.9132 26.4175 54.0889 26.3001 54.2369 26.1522C54.3849 26.0042 54.5023 25.8285 54.5824 25.6352C54.6624 25.4418 54.7037 25.2346 54.7037 25.0253C54.7037 24.816 54.6624 24.6088 54.5824 24.4155C54.5023 24.2221 54.3849 24.0465 54.2369 23.8985L53.7072 23.3688L66.1122 10.9641C66.4493 10.6451 66.8934 10.4636 67.3573 10.4551C67.8347 10.4577 68.2915 10.6497 68.6273 10.989L74.8109 17.1726C73.9011 18.6201 73.5097 20.3336 73.701 22.0326C73.8923 23.7316 74.6549 25.3152 75.8638 26.5242C77.0728 27.7331 78.6564 28.4957 80.3554 28.687C82.0544 28.8783 83.7679 28.4869 85.2154 27.5771L91.4005 33.7613C91.7394 34.0978 91.9313 34.5546 91.9344 35.0321C91.9364 35.2628 91.8923 35.4916 91.8049 35.7051C91.7176 35.9186 91.5886 36.1126 91.4254 36.2757Z" fill="#043A69"/>
<path d="M71.1409 40.8025C70.9931 40.6537 70.8174 40.5356 70.6239 40.4549C70.4303 40.3742 70.2227 40.3325 70.013 40.3322C69.8033 40.3318 69.5956 40.3729 69.4018 40.453C69.208 40.5331 69.032 40.6506 68.8837 40.7989C68.7354 40.9472 68.6178 41.1233 68.5377 41.3171C68.4577 41.5109 68.4166 41.7186 68.4169 41.9283C68.4173 42.138 68.459 42.3456 68.5397 42.5391C68.6204 42.7326 68.7385 42.9084 68.8873 43.0562L70.014 44.1838C70.1619 44.3325 70.3376 44.4506 70.5311 44.5313C70.7247 44.6121 70.9322 44.6538 71.1419 44.6541C71.3516 44.6544 71.5593 44.6134 71.7531 44.5333C71.9469 44.4532 72.123 44.3356 72.2713 44.1873C72.4196 44.0391 72.5371 43.863 72.6172 43.6692C72.6973 43.4754 72.7384 43.2677 72.738 43.058C72.7377 42.8483 72.696 42.6407 72.6153 42.4472C72.5346 42.2536 72.4165 42.0779 72.2677 41.9301L71.1409 40.8025Z" fill="#043A69"/>
<path d="M75.6498 45.3106C75.5018 45.1626 75.3262 45.0453 75.1328 44.9652C74.9395 44.8851 74.7322 44.8439 74.523 44.8439C74.3137 44.8439 74.1065 44.8851 73.9131 44.9652C73.7198 45.0453 73.5441 45.1626 73.3961 45.3106C73.2482 45.4586 73.1308 45.6343 73.0507 45.8276C72.9706 46.021 72.9294 46.2282 72.9294 46.4374C72.9294 46.6467 72.9706 46.8539 73.0507 47.0473C73.1308 47.2406 73.2482 47.4163 73.3961 47.5643L74.5229 48.6911C74.6709 48.839 74.8466 48.9564 75.0399 49.0365C75.2333 49.1166 75.4405 49.1578 75.6498 49.1578C75.859 49.1578 76.0663 49.1166 76.2596 49.0365C76.4529 48.9564 76.6286 48.839 76.7766 48.6911C76.9246 48.5431 77.0419 48.3674 77.122 48.1741C77.2021 47.9807 77.2433 47.7735 77.2433 47.5642C77.2433 47.355 77.2021 47.1477 77.122 46.9544C77.0419 46.7611 76.9246 46.5854 76.7766 46.4374L75.6498 45.3106Z" fill="#043A69"/>
<path d="M66.6336 36.2952C66.3345 35.9973 65.9295 35.8303 65.5075 35.8308C65.0854 35.8312 64.6807 35.999 64.3823 36.2975C64.0838 36.596 63.916 37.0006 63.9155 37.4227C63.9151 37.8448 64.0821 38.2498 64.38 38.5488L65.5068 39.6756C65.6547 39.8236 65.8304 39.941 66.0237 40.0211C66.2171 40.1011 66.4243 40.1424 66.6336 40.1424C66.8429 40.1424 67.0501 40.1011 67.2434 40.0211C67.4368 39.941 67.6124 39.8236 67.7604 39.6756C67.9084 39.5276 68.0258 39.352 68.1059 39.1586C68.1859 38.9653 68.2272 38.7581 68.2272 38.5488C68.2272 38.3395 68.1859 38.1323 68.1059 37.939C68.0258 37.7456 67.9084 37.5699 67.7604 37.422L66.6336 36.2952Z" fill="#043A69"/>
<path d="M57.6174 27.2798C57.3185 26.9809 56.9132 26.813 56.4906 26.813C56.0679 26.813 55.6626 26.9809 55.3637 27.2798C55.0649 27.5786 54.897 27.984 54.897 28.4066C54.897 28.8292 55.0649 29.2346 55.3637 29.5334L56.4905 30.6602C56.7894 30.9591 57.1947 31.127 57.6174 31.127C58.04 31.127 58.4453 30.9591 58.7442 30.6602C59.043 30.3614 59.2109 29.956 59.2109 29.5334C59.2109 29.1107 59.043 28.7054 58.7442 28.4065L57.6174 27.2798Z" fill="#043A69"/>
<path d="M62.1263 31.7871C61.8274 31.4882 61.4221 31.3203 60.9995 31.3203C60.5768 31.3203 60.1715 31.4882 59.8726 31.7871C59.5738 32.0859 59.4059 32.4913 59.4059 32.9139C59.4059 33.3366 59.5738 33.7419 59.8726 34.0407L60.9994 35.1675C61.2983 35.4664 61.7036 35.6343 62.1262 35.6343C62.5489 35.6343 62.9542 35.4665 63.2531 35.1676C63.552 34.8688 63.7199 34.4634 63.7199 34.0408C63.7199 33.6181 63.552 33.2128 63.2532 32.9139L62.1263 31.7871Z" fill="#043A69"/>
<path d="M29.9592 72.4998C28.6121 71.8703 27.8208 70.9734 26.2039 70.8253C24.1283 70.6354 20.9237 71.559 20.5372 73.9835C20.3969 74.8637 20.6573 75.7495 21.2513 76.4141L23.8207 79.2844C25.7152 81.3961 28.4172 82.6071 31.2341 82.6071C32.9126 82.6071 34.5839 82.1744 36.067 81.3552C38.9678 79.7536 53.439 71.7627 53.4571 71.7526L53.5172 71.7189C55.3468 70.6747 56.0651 68.3454 55.152 66.4159C54.7285 65.5208 54.076 64.8235 53.213 64.3431C51.0158 63.1202 48.0456 63.283 45.2679 64.7796C44.7634 65.0514 43.226 66.0932 42.6352 65.7241C42.6345 65.7236 39.5264 63.7789 39.5264 63.7789C37.8321 62.7186 35.6571 62.7427 33.9862 63.8397C33.0317 64.4666 31.9925 65.0269 31.8275 66.2814C31.7338 66.9934 31.9542 67.7092 32.4318 68.2448L34.576 70.6511C33.2304 71.4628 31.4236 73.1841 29.9592 72.4998ZM32.237 75.8181C32.2546 75.8084 32.2722 75.7983 32.2894 75.788L36.993 72.9525C37.6267 72.5645 38.0526 71.9204 38.1613 71.1854C38.27 70.4504 38.0489 69.7107 37.5546 69.156L35.4132 66.753L35.7527 66.5302C36.3763 66.1207 37.187 66.1121 37.8188 66.5074L40.9272 68.4522C42.0383 69.1474 43.4065 69.2232 44.5877 68.6554C44.8423 68.5329 45.0797 68.4279 45.3171 68.3226C45.7635 68.1245 46.2254 67.9196 46.7937 67.6134C48.1885 66.8623 50.1955 66.3469 51.6472 67.1554H51.6474C51.9231 67.3088 52.1066 67.5053 52.2426 67.7926C52.4372 68.2042 52.2933 68.7115 51.9216 68.9237C51.9194 68.925 51.9014 68.9349 51.8995 68.9362C51.8191 68.9805 34.5113 78.5378 34.5113 78.5378C33.5032 79.0942 32.3699 79.3886 31.2341 79.3886C29.3301 79.3886 27.5012 78.5672 26.2166 77.1351L23.8707 74.5148L23.9882 74.4469C25.0665 73.8237 26.4261 73.8774 27.452 74.5836L28.2881 75.1592C28.4314 75.2576 28.5623 75.3575 28.5943 75.3854C29.5886 76.2983 31.053 76.4725 32.237 75.8181Z" fill="#043A69"/>
</svg>
