<svg width="105" height="101" viewBox="0 0 105 101" fill="none" xmlns="http://www.w3.org/2000/svg">
<path d="M94.0168 73.9892H74.2652C73.768 73.9891 73.2911 73.7915 72.9395 73.4399C72.5879 73.0883 72.3904 72.6115 72.3902 72.1142L72.3911 57.9822C72.391 57.5099 72.5691 57.0549 72.8899 56.7083C73.2107 56.3617 73.6506 56.1489 74.1215 56.1126L83.7006 55.3711C84.1574 55.3353 84.6115 55.4682 84.9769 55.7446C90.2208 59.7102 94.0281 65.2781 95.8213 71.6034C95.9002 71.8823 95.9133 72.1756 95.8597 72.4605C95.8061 72.7453 95.6873 73.0139 95.5124 73.2451C95.3376 73.4762 95.1115 73.6637 94.852 73.7928C94.5925 73.922 94.3067 73.9892 94.0168 73.9892ZM76.1402 70.2392H91.4121C91.3141 69.9865 91.2116 69.7357 91.1063 69.4867C89.3876 65.4508 86.6938 61.9048 83.2667 59.1668L76.1411 59.7181L76.1402 70.2392Z" fill="#043A69"/>
<path d="M69.3289 43.3567C69.6773 43.77 70.1114 44.1026 70.6011 44.3313C71.0909 44.5601 71.6245 44.6795 72.165 44.6814H100.7C101.694 44.6803 102.648 44.2848 103.351 43.5818C104.054 42.8788 104.449 41.9256 104.45 40.9314V17.0087C104.45 16.2454 104.215 15.5006 103.777 14.8753V1.875C103.777 1.62875 103.729 1.38491 103.635 1.15739C103.54 0.929875 103.402 0.72315 103.228 0.549027C103.054 0.374904 102.847 0.236795 102.62 0.142591C102.392 0.0483868 102.148 -6.64453e-05 101.902 6.83866e-08H70.29C70.271 6.83866e-08 70.2553 0.0101816 70.2366 0.0107629C70.0156 0.0151824 69.7973 0.0592109 69.5919 0.140756C69.5497 0.157819 69.5154 0.184706 69.4747 0.204731C69.3703 0.249814 69.2702 0.304485 69.1758 0.368044L50.6518 14.0593C50.5702 14.1103 50.4926 14.1676 50.4199 14.2307L2.87608 49.3708C2.64008 49.5448 2.44828 49.7719 2.31613 50.0336C2.18398 50.2954 2.11518 50.5845 2.11528 50.8778V64.3157L0.759372 65.3211C0.524325 65.4959 0.333375 65.7231 0.201757 65.9848C0.0701395 66.2464 0.00149791 66.5352 0.00130972 66.8281V91.0419C-0.00955329 91.3271 0.0472831 91.6108 0.167166 91.8699C0.287049 92.1289 0.46657 92.3558 0.691033 92.5321C0.915497 92.7084 1.17852 92.8291 1.45858 92.8842C1.73863 92.9393 2.02775 92.9273 2.30227 92.8491H11.1493C11.3778 94.9803 12.3862 96.9517 13.9805 98.3842C15.5748 99.8167 17.6425 100.609 19.7859 100.609C21.9292 100.609 23.9969 99.8167 25.5912 98.3842C27.1855 96.9517 28.1939 94.9803 28.4224 92.8491H72.9328C73.1612 94.9802 74.1694 96.9516 75.7637 98.3842C77.3579 99.8167 79.4255 100.609 81.5688 100.609C83.7122 100.609 85.7798 99.8167 87.374 98.3842C88.9683 96.9516 89.9765 94.9802 90.2049 92.8491H100.587C101.461 92.8511 102.307 92.5328 102.963 91.9542C103.619 91.3757 104.041 90.577 104.149 89.7089C105.039 82.4128 104.008 75.0108 101.158 68.2358C98.3074 61.4608 93.7367 55.5479 87.8983 51.0827C86.8036 50.2474 85.4384 49.8469 84.066 49.9584L70.5848 51.0021C69.6453 51.0802 68.7692 51.5075 68.1292 52.1996C67.4891 52.8917 67.1315 53.7984 67.1269 54.7411V80.0903H19.7936L69.3289 43.3567ZM3.75131 67.771L13.5797 60.4827C13.9654 60.3598 14.2994 60.1122 14.529 59.7788L43.2859 38.454C43.3271 38.4186 43.3776 38.3965 43.4157 38.3577L68.415 19.8193V24.5673L3.75131 72.5196V67.771ZM53.6393 26.1073V16.5128L59.5748 12.1259V21.7058L53.6393 26.1073ZM49.8893 28.8881L43.9539 33.2896V23.6712L49.8893 19.2843V28.8881ZM40.2039 36.0704L34.2686 40.4719V30.8296L40.2039 26.4428V36.0704ZM30.5186 43.2527L24.5832 47.6541V37.9881L30.5186 33.6012V43.2527ZM20.8332 50.435L14.8979 54.8364V45.1464L20.8332 40.7597V50.435ZM72.165 3.75H78.9866V13.2587H72.165V3.75ZM82.7366 13.2587V3.75H89.4557V13.2587H82.7366ZM3.75131 77.19L68.415 29.2377V39.3658L3.75131 87.3175V77.19ZM72.165 40.9314V17.0087H100.7L100.703 40.9314H72.165ZM100.027 13.2587H93.2057V3.75H100.027V13.2587ZM68.415 15.1337V15.1502L63.3248 18.925V9.35428L68.4151 5.59204L68.415 15.1337ZM5.86528 51.8225L11.1479 47.9181V57.6173L5.86528 61.5347V51.8225ZM19.7859 96.8591C18.8001 96.859 17.8366 96.5665 17.0171 96.0187C16.1976 95.4709 15.5589 94.6925 15.1818 93.7817C14.8047 92.871 14.7061 91.8689 14.8985 90.9021C15.091 89.9353 15.5657 89.0473 16.2628 88.3504C16.9599 87.6534 17.848 87.1788 18.8148 86.9866C19.7816 86.7943 20.7837 86.8931 21.6943 87.2704C22.605 87.6476 23.3834 88.2865 23.931 89.1061C24.4786 89.9257 24.7709 90.8893 24.7709 91.875C24.7693 93.1965 24.2435 94.4634 23.3089 95.3978C22.3744 96.3322 21.1074 96.8577 19.7859 96.8591ZM81.5684 96.8591C80.5827 96.859 79.6191 96.5665 78.7996 96.0187C77.9801 95.4709 77.3414 94.6925 76.9643 93.7817C76.5872 92.871 76.4886 91.8689 76.6811 90.9021C76.8735 89.9353 77.3483 89.0473 78.0453 88.3504C78.7424 87.6534 79.6305 87.1788 80.5973 86.9866C81.5641 86.7943 82.5662 86.8931 83.4769 87.2704C84.3875 87.6476 85.1659 88.2865 85.7135 89.1061C86.2611 89.9257 86.5534 90.8893 86.5534 91.875C86.552 93.1966 86.0263 94.4636 85.0917 95.398C84.1571 96.3325 82.89 96.8579 81.5684 96.8591ZM100.445 89.0991H96.3606V84.6369H100.691C100.694 86.1278 100.612 87.6176 100.445 89.0991ZM70.8769 54.7412L84.3571 53.6975C84.8068 53.6556 85.2559 53.7843 85.615 54.0582C90.8962 58.1053 95.042 63.4483 97.6505 69.5691C99.1791 73.1727 100.144 76.9899 100.512 80.8869H95.7792C94.939 80.8882 94.1337 81.2225 93.5397 81.8167C92.9457 82.4109 92.6116 83.2163 92.6106 84.0564V89.0992H89.8089C89.2369 87.3654 88.1326 85.8563 86.6531 84.7865C85.1737 83.7168 83.3945 83.1409 81.5688 83.1409C79.7432 83.1409 77.964 83.7168 76.4846 84.7865C75.0051 85.8563 73.9008 87.3654 73.3288 89.0992H70.8769V54.7412ZM67.1269 89.0991H28.0264C27.6373 87.933 27.0068 86.862 26.176 85.9559C25.3452 85.0498 24.3328 84.329 23.2048 83.8403H67.1269V89.0991ZM16.3669 83.8403C15.2388 84.329 14.2264 85.0498 13.3957 85.9559C12.5649 86.862 11.9344 87.933 11.5452 89.0991H7.64518L14.7367 83.8403H16.3669Z" fill="#043A69"/>
</svg>
