<svg width="121" height="106" viewBox="0 0 121 106" fill="none" xmlns="http://www.w3.org/2000/svg">
<g clip-path="url(#clip0_2013_372)">
<path d="M118.678 102.342H106.821V29.2488C106.821 28.2369 106.003 27.4229 104.999 27.4229H85.4657C84.456 27.4229 83.6437 28.2425 83.6437 29.2488V102.342H72.0973V64.0262C72.0973 63.0144 71.2794 62.2003 70.2753 62.2003H50.7416C49.7319 62.2003 48.9197 63.02 48.9197 64.0262V102.342H37.3732V45.9365C37.3732 44.9246 36.5553 44.1106 35.5512 44.1106H16.0063C14.9966 44.1106 14.1843 44.9303 14.1843 45.9365V102.342H2.32194C1.31226 102.342 0.5 103.162 0.5 104.168C0.5 105.175 1.3179 105.994 2.32194 105.994H118.672C119.682 105.994 120.494 105.175 120.494 104.168C120.494 103.162 119.676 102.342 118.672 102.342H118.678ZM17.8282 102.342V47.7455H33.7406V102.342H17.8282ZM52.5297 102.342V65.8522H68.4421V102.342H52.5297ZM87.2594 102.342V31.0747H103.172V102.342H87.2594ZM14.1787 32.6406C14.1787 31.6287 14.9966 30.8147 16.0006 30.8147H35.5343C35.822 30.8147 36.1322 30.8882 36.3973 31.0295L60.2067 43.7036L100.171 3.62925H85.46C84.4504 3.62925 83.6381 2.80956 83.6381 1.80332C83.6381 0.797078 84.456 0 85.46 0H104.542C105.552 0 106.364 0.81969 106.364 1.82593V20.9219C106.364 21.9338 105.547 22.7478 104.542 22.7478C103.538 22.7478 102.721 21.9281 102.721 20.9219V6.25225L61.8256 47.2141C61.4646 47.5759 61.0077 47.7455 60.5282 47.7455C60.2405 47.7455 59.9529 47.672 59.6877 47.5307L35.0887 34.4439H16.0063C14.9966 34.4439 14.1843 33.6525 14.1843 32.6406H14.1787Z" fill="#223A69"/>
</g>
<defs>
<clipPath id="clip0_2013_372">
<rect width="120" height="106" fill="white" transform="translate(0.5)"/>
</clipPath>
</defs>
</svg>
