<svg width="121" height="70" viewBox="0 0 121 70" fill="none" xmlns="http://www.w3.org/2000/svg">
<path d="M74.7315 40.7351C75.4027 41.6209 75.7411 42.8 75.7411 44.2162C75.7411 45.6323 75.3576 46.7607 74.5904 47.8158C73.8459 48.8708 72.7685 49.6663 71.3527 50.2136C70.4389 50.5747 69.3841 50.7891 68.16 50.9076V55.2293C68.16 56.211 67.3422 57.0291 66.3607 57.0291C65.3792 57.0291 64.5613 56.211 64.5613 55.2293V50.885C63.3598 50.7665 62.1866 50.5013 61.081 50.1177C59.6652 49.6155 58.4863 48.9893 57.6232 48.2445C56.952 47.6691 56.8053 46.7099 57.2622 45.9426C57.5274 45.5082 57.9335 45.2204 58.4355 45.1245C58.915 45.0286 59.4452 45.1471 59.8513 45.4348C60.5 45.9144 61.3179 46.3488 62.2994 46.7551C63.5234 47.2572 64.9167 47.4998 66.4509 47.4998C69.0908 47.4998 70.3374 46.9469 70.9127 46.5181C71.6798 45.92 72.0634 45.1471 72.0634 44.2162C72.0634 43.5673 71.8942 43.0652 71.5839 42.7267C71.2004 42.3205 70.6476 41.9819 69.9763 41.745C69.1867 41.4572 68.2954 41.2429 67.3365 41.0736C66.3043 40.8818 65.2269 40.6899 64.1664 40.4473C63.0383 40.2047 62.0061 39.8493 61.0923 39.4148C60.06 38.9353 59.2196 38.2639 58.5934 37.3725C57.9222 36.4585 57.5838 35.2849 57.5838 33.8462C57.5838 32.5993 57.9448 31.4484 58.616 30.4159C59.2873 29.3834 60.3195 28.5428 61.662 27.9221C62.4799 27.5385 63.4614 27.2959 64.5444 27.1548V22.8556C64.5444 21.8739 65.3623 21.0559 66.3438 21.0559C67.3252 21.0559 68.1431 21.8739 68.1431 22.8556V27.1774C69.0569 27.2733 69.9651 27.4651 70.8789 27.7303C72.0521 28.0914 73.0618 28.5484 73.8797 29.1013C74.6694 29.6542 74.912 30.7318 74.3592 31.5499C74.0941 31.9562 73.6879 32.2213 73.2085 32.3172C72.729 32.4132 72.2495 32.3172 71.866 32.0521C71.2399 31.6176 70.5235 31.2848 69.7282 31.0704C68.6959 30.7826 67.6185 30.6134 66.513 30.6134C64.5951 30.6134 63.1793 30.9745 62.384 31.6233C61.6394 32.2495 61.2784 32.9943 61.2784 33.8801C61.2784 34.574 61.4476 35.1269 61.7804 35.488C62.164 35.9225 62.6942 36.2779 63.3655 36.4979C64.1552 36.7857 65.0464 37.0001 66.0053 37.1919C67.015 37.3837 68.0698 37.5981 69.1246 37.8182C70.2302 38.0608 71.2624 38.3936 72.1706 38.7999C73.2254 39.2569 74.0659 39.9057 74.7145 40.7464L74.7315 40.7351ZM120.5 9.94116V68.1776C120.5 69.1876 119.682 70 118.678 70H14.0828C13.0731 70 12.2608 69.1819 12.2608 68.1776V61.8868H2.32194C1.31226 61.8868 0.5 61.0688 0.5 60.0645V1.82236C0.5 0.818087 1.3179 0 2.32194 0H106.917C107.927 0 108.739 0.818087 108.739 1.82236V8.11316H118.678C119.688 8.11316 120.5 8.93125 120.5 9.93552V9.94116ZM12.2608 58.2365V9.94116C12.2608 8.93125 13.0787 8.1188 14.0828 8.1188H105.09V3.656H4.14952V58.2421H12.2608V58.2365ZM116.85 11.7635H15.9104V66.3496H116.879V11.7635H116.856H116.85ZM19.1707 49.9823V28.114C19.1707 27.1041 19.9886 26.2916 20.9926 26.2916C25.9846 26.2916 30.0628 22.2125 30.0628 17.2193C30.0628 16.2094 30.8807 15.397 31.8848 15.397H100.91C101.92 15.397 102.732 16.215 102.732 17.2193C102.732 22.2125 106.81 26.2916 111.802 26.2916C112.812 26.2916 113.624 27.1097 113.624 28.114V49.9823C113.624 50.9922 112.806 51.8046 111.802 51.8046C106.81 51.8046 102.732 55.8838 102.732 60.8769C102.732 61.8868 101.914 62.6993 100.91 62.6993H31.8679C30.8582 62.6993 30.0459 61.8812 30.0459 60.8769C30.0459 55.8838 25.9677 51.8046 20.9757 51.8046C19.9942 51.8046 19.1763 50.9865 19.1763 49.9823H19.1707ZM78.9563 19.036C85.6067 23.2393 90.0177 30.6303 90.0177 39.0594C90.0177 47.4885 85.6011 54.8795 78.9563 59.0828H99.1895C99.9792 53.5367 104.396 49.1191 109.941 48.3292V29.8461C104.373 29.0562 99.9792 24.6385 99.1895 19.0924H78.9563V19.0417V19.036ZM86.3964 39.0594C86.3964 28.0181 77.4221 19.036 66.3776 19.036C55.3331 19.036 46.3588 28.0124 46.3588 39.0594C46.3588 50.1064 55.3331 59.0828 66.3776 59.0828C77.4221 59.0828 86.3964 50.0782 86.3964 39.0594ZM22.7976 48.301C28.365 49.0908 32.7591 53.5085 33.5488 59.0546H53.7819C47.1316 54.8513 42.7205 47.4603 42.7205 39.0312C42.7205 30.6021 47.1372 23.2111 53.7819 19.0078H33.5488C32.7591 24.5539 28.3424 28.9716 22.7976 29.7614V48.2953V48.301Z" fill="#223A69"/>
</svg>
