<svg width="121" height="120" viewBox="0 0 121 120" fill="none" xmlns="http://www.w3.org/2000/svg">
<g clip-path="url(#clip0_2013_416)">
<path d="M113.492 53.0294C110.278 53.0294 107.588 55.212 106.776 58.1671H92.145C91.739 50.7792 88.762 44.0568 84.1555 38.874L94.7104 28.3166C95.7422 28.9144 96.9432 29.2528 98.1667 29.2528C100.016 29.2528 101.764 28.5309 103.083 27.2112C104.403 25.8915 105.124 24.1376 105.124 22.2935C105.124 20.4493 104.403 18.6954 103.083 17.3757C101.764 16.056 100.01 15.3342 98.1667 15.3342C96.323 15.3342 94.5694 16.056 93.2501 17.3757C90.9948 19.6541 90.6113 23.0886 92.145 25.7505L81.5901 36.3079C76.4085 31.6778 69.6651 28.7001 62.2789 28.294V13.6817C65.2277 12.8922 67.4154 10.1795 67.4154 6.96495C67.4154 3.12436 64.2974 0.00564575 60.4577 0.00564575C56.618 0.00564575 53.5 3.12436 53.5 6.96495C53.5 10.1795 55.6821 12.8696 58.6365 13.6817V28.3166C51.2504 28.7226 44.5295 31.7003 39.3254 36.3305L28.7704 25.7731C29.3681 24.7411 29.7064 23.5398 29.7064 22.316C29.7064 20.4662 28.9847 18.7179 27.6653 17.3983C26.346 16.0786 24.5925 15.3567 22.7487 15.3567C20.905 15.3567 19.1515 16.0786 17.8321 17.3983C16.5128 18.7179 15.7911 20.4719 15.7911 22.316C15.7911 24.1602 16.5128 25.9141 17.8321 27.2338C19.1515 28.5534 20.905 29.2753 22.7487 29.2753C23.9948 29.2753 25.1732 28.9369 26.205 28.3391L36.7599 38.8965C32.1309 44.0793 29.1764 50.7961 28.7704 58.1897H14.1391C13.3722 55.212 10.6828 53.0294 7.46894 53.0294C3.62926 53.0294 0.511276 56.1481 0.511276 59.9887C0.511276 63.8293 3.62926 66.948 7.46894 66.948C10.6828 66.948 13.3722 64.7655 14.1842 61.8103H28.8156C29.2215 69.1982 32.1985 75.8981 36.805 81.1035L26.2501 91.6609C25.2183 91.0631 24.0174 90.7247 22.7938 90.7247C20.9445 90.7247 19.1966 91.4466 17.8772 92.7662C16.5579 94.0859 15.8362 95.8398 15.8362 97.684C15.8362 99.5282 16.5579 101.282 17.8772 102.602C19.2474 103.972 21.0178 104.643 22.7938 104.643C24.5699 104.643 26.346 103.972 27.7104 102.602C29.0298 101.282 29.7515 99.5282 29.7515 97.684C29.7515 96.4376 29.4132 95.259 28.8156 94.2269L39.3705 83.6695C44.5521 88.2997 51.2955 91.2774 58.6816 91.6834V106.318C55.7328 107.108 53.5452 109.82 53.5452 113.035C53.5452 116.876 56.6631 119.994 60.5028 119.994C64.3425 119.994 67.4605 116.876 67.4605 113.035C67.4605 109.82 65.2785 107.13 62.324 106.318V91.6834C69.7102 91.2774 76.431 88.2997 81.6352 83.6695L92.1901 94.2269C90.6565 96.8888 91.0399 100.346 93.2952 102.602C94.6653 103.944 96.4357 104.643 98.2118 104.643C99.9878 104.643 101.764 103.972 103.128 102.602C104.493 101.231 105.169 99.5282 105.169 97.684C105.169 95.8398 104.448 94.0859 103.128 92.7662C101.809 91.4466 100.056 90.7247 98.2118 90.7247C96.9657 90.7247 95.7873 91.0631 94.7555 91.6609L84.2006 81.1035C88.8296 75.9207 91.7841 69.2039 92.1901 61.8103H106.821C107.611 64.7598 110.323 66.948 113.537 66.948C117.376 66.948 120.494 63.8293 120.494 59.9887C120.494 56.1481 117.326 53.0294 113.492 53.0294ZM95.8381 19.9417C96.4639 19.3157 97.304 18.9604 98.1892 18.9604C99.0744 18.9604 99.9145 19.2988 100.54 19.9417C101.166 20.5677 101.521 21.408 101.521 22.2935C101.521 23.1789 101.183 24.0192 100.54 24.6452C99.9145 25.2712 99.0744 25.6265 98.1892 25.6265C97.304 25.6265 96.4639 25.2881 95.8381 24.6452C94.5412 23.3481 94.5412 21.2388 95.8381 19.9417ZM57.1424 6.95931C57.1424 5.13771 58.6309 3.62629 60.4746 3.62629C62.3184 3.62629 63.8069 5.11515 63.8069 6.95931C63.8069 8.80346 62.3184 10.2923 60.4746 10.2923C58.6309 10.2923 57.1424 8.78091 57.1424 6.95931ZM20.4145 24.6452C19.7886 24.0192 19.4334 23.1789 19.4334 22.2935C19.4334 21.408 19.7717 20.5677 20.4145 19.9417C21.0403 19.3157 21.8804 18.9604 22.7657 18.9604C23.6509 18.9604 24.491 19.2988 25.1168 19.9417C25.7427 20.5677 26.0979 21.408 26.0979 22.2935C26.0979 23.1789 25.7596 24.0192 25.1168 24.6452C24.491 25.2712 23.6509 25.6265 22.7657 25.6265C21.8804 25.6265 21.0403 25.2655 20.4145 24.6452ZM7.45766 63.3274C5.63649 63.3274 4.12543 61.8385 4.12543 59.9944C4.12543 58.1502 5.61394 56.6613 7.45766 56.6613C9.30139 56.6613 10.7899 58.1502 10.7899 59.9944C10.7899 61.8385 9.27884 63.3274 7.45766 63.3274ZM25.1112 100.036C23.8144 101.333 21.7057 101.333 20.4088 100.036C19.783 99.4097 19.4278 98.5694 19.4278 97.684C19.4278 96.7986 19.7661 95.9583 20.4088 95.3323C21.0347 94.7063 21.8748 94.351 22.76 94.351C23.6452 94.351 24.4853 94.6894 25.1112 95.3323C25.737 95.9583 26.0923 96.7986 26.0923 97.684C26.0923 98.5694 25.7314 99.4097 25.1112 100.036ZM63.8125 113.018C63.8125 114.84 62.324 116.351 60.4803 116.351C58.6365 116.351 57.148 114.862 57.148 113.018C57.148 111.174 58.6365 109.685 60.4803 109.685C62.324 109.685 63.8125 111.197 63.8125 113.018ZM100.54 95.3323C101.166 95.9583 101.521 96.7986 101.521 97.684C101.521 98.5694 101.183 99.4097 100.54 100.036C99.2436 101.333 97.1349 101.333 95.8381 100.036C94.5412 98.7386 94.5412 96.6294 95.8381 95.3323C96.4639 94.7063 97.304 94.351 98.1892 94.351C99.0744 94.351 99.9145 94.7119 100.54 95.3323ZM60.4746 88.1136C44.9749 88.1136 32.3564 75.4921 32.3564 59.9887C32.3564 44.4854 44.9749 31.8639 60.4746 31.8639C75.9743 31.8639 88.5928 44.4854 88.5928 59.9887C88.5928 75.4921 75.9743 88.1136 60.4746 88.1136ZM113.492 63.3274C111.67 63.3274 110.159 61.8385 110.159 59.9944C110.159 58.1502 111.648 56.6613 113.492 56.6613C115.335 56.6613 116.824 58.1502 116.824 59.9944C116.824 61.8385 115.335 63.3274 113.492 63.3274ZM71.8471 62.7973C72.7097 63.9477 73.1664 65.4874 73.1664 67.3823C73.1664 69.1588 72.6646 70.7435 71.6554 72.159C70.6743 73.552 69.2084 74.6066 67.3364 75.3511C65.9438 75.9038 64.2636 76.2365 62.3465 76.3606V83.1056C62.3465 84.1376 61.5064 84.9779 60.4746 84.9779C59.4428 84.9779 58.6027 84.1376 58.6027 83.1056V76.3606C56.7082 76.2139 54.8871 75.8304 53.1787 75.2326C51.2334 74.5615 49.6265 73.6987 48.4538 72.6892C47.7321 72.0914 47.5911 71.0593 48.0704 70.2641C48.3579 69.8073 48.7921 69.4971 49.3164 69.4013C49.8464 69.3054 50.3708 69.4238 50.8049 69.7396C51.7635 70.4615 52.987 71.1101 54.4529 71.6853C56.2741 72.4297 58.3659 72.7907 60.593 72.7907C63.7618 72.7907 66.0396 72.2606 67.359 71.2285C68.6332 70.2472 69.2535 68.9952 69.2535 67.4105C69.2535 66.3051 68.9659 65.4422 68.4134 64.8444C67.7875 64.1733 66.9248 63.6432 65.8705 63.2597C64.7203 62.8537 63.4235 62.5153 62.0082 62.2784C60.5423 62.0134 59.0312 61.7257 57.5202 61.393C55.9865 61.0546 54.5431 60.5752 53.2745 59.9774C51.9044 59.3514 50.8049 58.4435 49.9648 57.2873C49.1022 56.1143 48.668 54.5521 48.668 52.6572C48.668 51.0274 49.1247 49.4877 50.0381 48.1229C50.9233 46.7525 52.316 45.6528 54.1146 44.8125C55.3889 44.2372 56.8999 43.8537 58.6253 43.6846V36.917C58.6253 35.885 59.4654 35.0447 60.4972 35.0447C61.529 35.0447 62.3691 35.885 62.3691 36.917V43.662C63.8351 43.7804 65.2954 44.0455 66.7613 44.4797C68.3682 44.9591 69.7609 45.5851 70.866 46.3295C71.7061 46.9048 71.9429 48.0553 71.396 48.9238C71.1085 49.358 70.7025 49.6456 70.1951 49.7415C69.6876 49.8374 69.1858 49.7415 68.7798 49.4539C67.8213 48.8053 66.7388 48.3034 65.5435 47.965C64.0098 47.5308 62.4255 47.2939 60.796 47.2939C57.8697 47.2939 55.7554 47.824 54.4867 48.8787C53.2858 49.8881 52.6656 51.1345 52.6656 52.5952C52.6656 53.7457 52.9531 54.6818 53.5282 55.3304C54.1541 56.0523 55.0167 56.6049 56.0486 56.9602C57.1988 57.3663 58.5181 57.7047 59.9108 57.9697C61.3486 58.2348 62.8371 58.545 64.3481 58.8552C65.8818 59.1935 67.297 59.6447 68.5712 60.2256C69.8906 60.8516 71.0182 61.7145 71.8584 62.8198L71.8471 62.7973Z" fill="#223A69"/>
</g>
<defs>
<clipPath id="clip0_2013_416">
<rect width="120" height="120" fill="white" transform="translate(0.5)"/>
</clipPath>
</defs>
</svg>
