<svg width="87" height="86" viewBox="0 0 87 86" fill="none" xmlns="http://www.w3.org/2000/svg">
<g clip-path="url(#clip0_2012_325)">
<path d="M51.4091 16.3344V9.63944C51.4091 -3.21347 0 -3.21347 0 9.63944V48.7987C0 53.8513 8.0011 57.001 17.6266 58.1208C14.1059 59.6816 11.8636 61.7899 11.8636 64.4623V76.2101C11.8636 82.6366 24.795 85.9998 37.5683 85.9998C50.3415 85.9998 63.2729 82.6365 63.2729 76.2101V70.3037C75.369 69.975 87.0002 66.6412 87.0002 60.5465V25.3032C87 17.1891 66.5174 14.2036 51.4091 16.3344ZM25.7046 3.90883C39.7773 3.90883 47.4546 7.78159 47.4546 9.77248C47.4546 11.7634 39.7771 15.6361 25.7046 15.6361C11.6321 15.6361 3.95467 11.7634 3.95467 9.77248C3.95449 7.78177 11.6319 3.90883 25.7046 3.90883ZM3.95449 15.2116C8.7524 18.066 17.251 19.5453 25.7044 19.5453C34.1578 19.5453 42.6567 18.066 47.4546 15.2116V17.1539C40.5831 18.6603 35.5909 21.4113 35.5909 25.409V26.5654C32.4921 27.0568 29.1471 27.3634 25.7046 27.3634C11.6319 27.3634 3.95467 23.4906 3.95467 21.4998L3.95449 15.2116ZM39.5454 54.3024C39.9217 54.5262 40.3132 54.7437 40.7335 54.9504C40.3377 54.934 39.9427 54.9181 39.5454 54.9078V54.3024ZM3.95449 26.9388C8.7524 29.7933 17.251 31.2726 25.7044 31.2726C29.1271 31.2726 32.4539 30.9688 35.5907 30.5056V40.2473C32.4919 40.7387 29.1469 41.0453 25.7044 41.0453C11.6317 41.0453 3.95449 37.1725 3.95449 35.1816V26.9388ZM3.95449 48.8635V40.6207C8.7524 43.4752 17.251 44.9545 25.7044 44.9545C29.1271 44.9545 32.4539 44.6507 35.5907 44.1875V53.9292C32.4919 54.4206 29.1469 54.7272 25.7044 54.7272C11.6319 54.7272 3.95449 50.8542 3.95449 48.8635ZM59.3182 76.2271C59.3182 78.218 51.6408 82.0908 37.5683 82.0908C23.4958 82.0908 15.8181 78.218 15.8181 76.2271V69.9387C20.616 72.7932 29.1147 74.2725 37.5681 74.2725C45.6598 74.2725 53.804 72.9206 58.6948 70.3019C58.9002 70.3096 59.1117 70.3105 59.318 70.3168V76.2271H59.3182ZM37.5683 70.3635C23.4956 70.3635 15.8183 66.4907 15.8183 64.4998C15.8183 62.509 23.4958 58.6362 37.5683 58.6362C51.6408 58.6362 59.3182 62.509 59.3182 64.4998C59.3182 66.4907 51.6408 70.3635 37.5683 70.3635ZM83.0455 60.5908C83.0455 62.4826 76.0393 66.0345 63.2727 66.3867V64.4998C63.2727 62.0578 61.4033 60.084 58.3877 58.5715C59.3546 58.6102 60.3244 58.6362 61.2954 58.6362C69.7488 58.6362 78.2476 57.1569 83.0453 54.3024V60.5908H83.0455ZM83.0455 48.8635C83.0455 50.8544 75.3681 54.7272 61.2956 54.7272C47.223 54.7272 39.5456 50.8544 39.5456 48.8635V42.5751C44.3433 45.4296 52.8422 46.9089 61.2956 46.9089C69.749 46.9089 78.2478 45.4296 83.0455 42.5751V48.8635ZM83.0455 37.1363C83.0455 39.1271 75.3681 42.9999 61.2956 42.9999C47.223 42.9999 39.5456 39.1271 39.5456 37.1363V30.8479C44.3433 33.7024 52.8422 35.1816 61.2956 35.1816C69.749 35.1816 78.2478 33.7024 83.0455 30.8479V37.1363ZM61.2956 31.2726C47.2229 31.2726 39.5456 27.3999 39.5456 25.409C39.5456 23.4181 47.223 19.5453 61.2956 19.5453C75.3681 19.5453 83.0455 23.4181 83.0455 25.409C83.0455 27.3999 75.3681 31.2726 61.2956 31.2726Z" fill="#043A69"/>
</g>
<defs>
<clipPath id="clip0_2012_325">
<rect width="87" height="86" fill="white"/>
</clipPath>
</defs>
</svg>
