<svg width="110" height="110" viewBox="0 0 110 110" fill="none" xmlns="http://www.w3.org/2000/svg">
<path d="M17.0315 16.5518C15.6844 15.9223 14.8932 15.0253 13.2763 14.8773C11.2006 14.6873 7.99604 15.611 7.60954 18.0355C7.46924 18.9157 7.72963 19.8015 8.32368 20.466L10.893 23.3363C12.7875 25.448 15.4896 26.6591 18.3064 26.6591C19.985 26.6591 21.6562 26.2264 23.1393 25.4072C26.0401 23.8055 40.5113 15.8146 40.5294 15.8045L40.5896 15.7708C42.4192 14.7267 43.1374 12.3973 42.2243 10.4678C41.8008 9.57277 41.1484 8.87539 40.2853 8.395C38.0881 7.17211 35.1179 7.33496 32.3402 8.83156C31.8357 9.10334 30.2983 10.1451 29.7075 9.77602C29.7069 9.77559 26.5987 7.83082 26.5987 7.83082C24.9045 6.77057 22.7294 6.79463 21.0585 7.89162C20.104 8.51854 19.0648 9.07885 18.8998 10.3333C18.8061 11.0453 19.0265 11.7612 19.5041 12.2968L21.6483 14.703C20.3027 15.5147 18.4959 17.236 17.0315 16.5518ZM19.3093 19.87C19.3269 19.8604 19.3445 19.8503 19.3617 19.8399L24.0653 17.0044C24.6991 16.6164 25.1249 15.9723 25.2336 15.2373C25.3423 14.5024 25.1212 13.7627 24.6269 13.2079L22.4855 10.8049L22.825 10.5821C23.4487 10.1726 24.2593 10.164 24.8911 10.5593L27.9995 12.5041C29.1107 13.1993 30.4788 13.2752 31.66 12.7073C31.9146 12.5849 32.152 12.4798 32.3894 12.3746C32.8358 12.1765 33.2978 11.9715 33.866 11.6654C35.2608 10.9143 37.2679 10.3988 38.7196 11.2073H38.7198C38.9954 11.3607 39.1789 11.5573 39.3149 11.8445C39.5095 12.2562 39.3656 12.7634 38.9939 12.9757C38.9918 12.977 38.9737 12.9869 38.9718 12.9881C38.8914 13.0324 21.5836 22.5897 21.5836 22.5897C20.5756 23.1462 19.4423 23.4405 18.3064 23.4405C16.4024 23.4405 14.5735 22.6192 13.2889 21.187L10.9431 18.5668L11.0606 18.4989C12.1389 17.8756 13.4984 17.9293 14.5243 18.6355L15.3605 19.2111C15.5038 19.3095 15.6346 19.4094 15.6666 19.4373C16.6609 20.3502 18.1253 20.5244 19.3093 19.87Z" fill="#043A69"/>
<path d="M69.5756 8.3252C69.269 7.58055 68.5513 7.09973 67.7458 7.09973C67.7454 7.09973 67.7445 7.09973 67.7439 7.09973C66.9382 7.10059 66.22 7.58291 65.9147 8.32864C65.9098 8.34088 65.9046 8.35334 65.9001 8.36559L59.7831 24.4264C59.4666 25.257 59.8836 26.1869 60.7142 26.5031C61.5437 26.8194 62.4744 26.4028 62.7909 25.572L63.9194 22.6084H71.5264L72.6432 25.5673C72.8862 26.2118 73.4987 26.6088 74.149 26.6088C74.3379 26.6088 74.5299 26.5753 74.7171 26.5048C75.5485 26.191 75.9683 25.2624 75.6544 24.431L69.593 8.36946C69.5875 8.35485 69.5816 8.34002 69.5756 8.3252ZM65.1456 19.3901L67.7407 12.5765L70.3121 19.3901H65.1456Z" fill="#043A69"/>
<path d="M85.1168 26.6086C86.0056 26.6086 86.726 25.888 86.726 24.9994V9.02172C86.726 8.13291 86.0056 7.41254 85.1168 7.41254H81.7016C80.8128 7.41254 80.0925 8.13312 80.0925 9.02172C80.0925 9.91053 80.8128 10.6309 81.7016 10.6309H83.5076V24.9994C83.5074 25.8882 84.2278 26.6086 85.1168 26.6086Z" fill="#043A69"/>
<path d="M91.7305 13.5841C92.6032 13.7556 93.4486 13.1873 93.6199 12.3152C93.8472 11.1583 94.8703 10.3185 96.0525 10.3185C97.3895 10.3185 98.4826 11.3822 98.5299 12.7078L98.4766 13.125C98.273 13.9408 97.7915 14.8944 97.0449 15.9616C94.5113 19.5817 92.9992 21.5613 92.1871 22.625C91.2009 23.9162 90.7927 24.4507 91.071 25.3554C91.233 25.882 91.8526 26.394 92.3869 26.5721H100.838C101.727 26.5609 102.439 25.8315 102.427 24.9427C102.416 24.0608 101.698 23.3537 100.818 23.3537C100.812 23.3537 100.805 23.3537 100.798 23.3537C99.0238 23.376 97.1351 23.3898 95.6467 23.3902C96.5458 22.1946 97.8523 20.4209 99.6817 17.8071C100.688 16.3691 101.343 15.0139 101.63 13.779C101.642 13.7266 101.651 13.6733 101.658 13.6198L101.737 13.0017C101.746 12.9342 101.75 12.8659 101.75 12.7978C101.75 9.65591 99.1942 7.09991 96.0525 7.09991C93.3361 7.09991 90.9848 9.03243 90.4617 11.695C90.2904 12.567 90.8585 13.4129 91.7305 13.5841Z" fill="#043A69"/>
<path d="M108.391 0H93.3954C92.5066 0 91.7862 0.720586 91.7862 1.60918C91.7862 2.49799 92.5066 3.21836 93.3954 3.21836H106.782V30.4898H3.21857V3.21857H85.8879C86.7767 3.21857 87.4971 2.49799 87.4971 1.60939C87.4971 0.720586 86.7767 0.000214844 85.8879 0.000214844H1.60918C0.720371 0 0 0.720586 0 1.60918V108.391C0 109.279 0.720371 110 1.60918 110H108.391C109.28 110 110 109.279 110 108.391V1.60918C110 0.720586 109.28 0 108.391 0ZM16.35 106.781H3.21857V33.7086H16.35V106.781ZM53.3908 75.1004H32.8056C31.9168 75.1004 31.1964 75.8209 31.1964 76.7095C31.1964 77.5981 31.9168 78.3189 32.8056 78.3189H53.3908V106.781H19.5686V78.3189H25.4983C26.3871 78.3189 27.1077 77.5983 27.1077 76.7095C27.1077 75.8207 26.3873 75.1004 25.4983 75.1004H19.5686V65.3894H53.3908V75.1004ZM53.3908 62.1708H19.5686V33.7086H53.3908V62.1708ZM90.4314 106.781H56.6092V78.3189H90.4314V106.781ZM90.4314 75.1004H56.6092V65.3894H90.4314V75.1004ZM90.4314 62.1708H56.6092V33.7086H90.4314V62.1708ZM106.781 106.781H93.65V33.7086H106.781V106.781Z" fill="#043A69"/>
</svg>
